<svg xmlns="http://www.w3.org/2000/svg" width="165" height="73" viewBox="0 0 165 73">
    <g fill="none" fill-rule="evenodd">
        <path fill="#F6F6F6" d="M-816-231H624v842H-816z"/>
        <path fill="#666" d="M0 52.016L23.957.591H35.42L11.167 52.016H29.91V31.377H40.19v20.64h5.706v9.703h-5.706v10.689H29.91V61.72H0v-9.704zM92.56 21.28c-.197-7.191-3.558-10.853-10.085-10.984-6.559.131-9.904 3.793-10.035 10.984v30.442c.131 7.257 3.476 10.918 10.035 10.984 6.527-.066 9.888-3.727 10.085-10.984V21.279zm-30.401-.64c.065-6.633 2.18-11.74 6.345-15.32C72.407 1.774 77.064 0 82.475 0c5.576 0 10.315 1.773 14.217 5.32 3.969 3.58 6.018 8.686 6.15 15.319v31.673c-.132 6.6-2.181 11.69-6.15 15.27-3.902 3.546-8.641 5.352-14.217 5.418-5.41-.066-10.068-1.872-13.97-5.418-4.166-3.58-6.28-8.67-6.346-15.27V20.639zm56.944 31.377L143.06.591h11.462l-24.253 51.425h18.743V31.377h10.282v20.64H165v9.703h-5.706v10.689h-10.282V61.72h-29.91v-9.704z"/>
    </g>
</svg>